<svg width="30" height="30" viewBox="0 0 30 30" fill="none" xmlns="http://www.w3.org/2000/svg">
<circle cx="15" cy="15" r="15" fill="#F9F9F8"/>
<g clip-path="url(#clip0_1725_19)">
<path d="M14.9999 24.9999C12.4529 24.9982 10.0026 24.0247 8.14891 22.2781C6.2952 20.5315 5.17779 18.1434 5.02469 15.601C4.87159 13.0587 5.69434 10.5537 7.32505 8.5973C8.95577 6.64084 11.2716 5.38035 13.7999 5.07301C15.3376 4.88253 16.8986 5.05509 18.3576 5.57685C18.4528 5.61095 18.5404 5.66346 18.6153 5.73139C18.6902 5.79932 18.751 5.88135 18.7942 5.97278C18.8374 6.06421 18.8622 6.16325 18.8671 6.26426C18.8721 6.36527 18.8571 6.46626 18.823 6.56147C18.7889 6.65668 18.7364 6.74424 18.6684 6.81915C18.6005 6.89407 18.5185 6.95487 18.427 6.99808C18.3356 7.0413 18.2366 7.06608 18.1356 7.07102C18.0346 7.07595 17.9336 7.06095 17.8384 7.02685C15.9484 6.35439 13.8809 6.37528 12.0049 7.08582C10.1289 7.79635 8.56632 9.1503 7.59602 10.9061C6.62571 12.6619 6.31078 14.7053 6.7074 16.6718C7.10402 18.6382 8.18641 20.3998 9.76143 21.6422C11.0795 22.6758 12.6748 23.2948 14.345 23.421C16.0152 23.5472 17.6853 23.1749 19.1438 22.3511C20.6022 21.5274 21.7834 20.2893 22.5376 18.7937C23.2919 17.2982 23.5853 15.6124 23.3807 13.9499C23.3685 13.8489 23.3764 13.7465 23.4039 13.6485C23.4314 13.5506 23.4778 13.459 23.5407 13.379C23.6036 13.299 23.6816 13.2321 23.7702 13.1823C23.8589 13.1324 23.9566 13.1005 24.0576 13.0884C24.1586 13.0763 24.261 13.0842 24.359 13.1116C24.457 13.1391 24.5486 13.1856 24.6286 13.2484C24.7086 13.3113 24.7754 13.3893 24.8252 13.478C24.8751 13.5667 24.907 13.6643 24.9191 13.7653C25.0941 15.1716 24.9682 16.5989 24.5497 17.9528C24.1313 19.3067 23.4298 20.5562 22.4919 21.6185C21.554 22.6808 20.401 23.5316 19.1094 24.1146C17.8178 24.6975 16.417 24.9993 14.9999 24.9999Z" fill="#1E1B0C"/>
<path d="M14.9999 21.8691C14.7959 21.8691 14.6003 21.7881 14.456 21.6438C14.3118 21.4996 14.2307 21.3039 14.2307 21.0999V13.7153C14.2307 13.5113 14.3118 13.3156 14.456 13.1713C14.6003 13.0271 14.7959 12.946 14.9999 12.946C15.204 12.946 15.3996 13.0271 15.5439 13.1713C15.6881 13.3156 15.7692 13.5113 15.7692 13.7153V21.0999C15.7692 21.3039 15.6881 21.4996 15.5439 21.6438C15.3996 21.7881 15.204 21.8691 14.9999 21.8691Z" fill="#1E1B0C"/>
<path d="M14.9999 12.0306C15.5458 12.0306 15.9884 11.5881 15.9884 11.0422C15.9884 10.4963 15.5458 10.0537 14.9999 10.0537C14.454 10.0537 14.0115 10.4963 14.0115 11.0422C14.0115 11.5881 14.454 12.0306 14.9999 12.0306Z" fill="#1E1B0C"/>
</g>
<defs>
<clipPath id="clip0_1725_19">
<rect width="20" height="20" fill="white" transform="translate(5 5)"/>
</clipPath>
</defs>
</svg>
