<svg width="59" height="59" viewBox="0 0 59 59" fill="none" xmlns="http://www.w3.org/2000/svg">
<circle cx="29.5" cy="29.5" r="29.5" fill="white"/>
<path d="M29.9987 29.7944C20.0772 29.7944 11.8842 36.3923 10.6389 44.9348C10.5554 45.5076 10.7529 46.0847 11.1808 46.5184C11.6087 46.9522 12.2255 47.1999 12.8734 47.1999H47.1241C47.7715 47.1999 48.3873 46.9511 48.8149 46.5177C49.2425 46.0843 49.4421 45.5072 49.3587 44.9348C48.1133 36.3923 39.9203 29.7944 29.9987 29.7944Z" fill="#FFB74A"/>
<path d="M29.9986 29.7947C20.0772 29.7947 11.8842 36.3925 10.6389 44.935C10.5554 45.5079 10.7529 46.0849 11.1808 46.5186C11.6087 46.9523 12.2255 47.2 12.8734 47.2H29.9986V29.7947Z" fill="#FFC56E"/>
<path d="M39.2257 31.8609C36.4777 30.5442 33.3369 29.7947 29.9986 29.7947C26.6604 29.7947 23.5196 30.5443 20.7715 31.8609C22.9393 34.7328 26.266 36.5732 29.9986 36.5732C33.7313 36.5732 37.058 34.7328 39.2257 31.8609Z" fill="#DE9F40"/>
<path d="M29.9984 33.4157C36.5306 33.4157 41.8261 27.7844 41.8261 20.8379C41.8261 13.8913 36.5306 8.26001 29.9984 8.26001C23.4661 8.26001 18.1707 13.8913 18.1707 20.8379C18.1707 27.7844 23.4661 33.4157 29.9984 33.4157Z" fill="#FFDBAC"/>
<path d="M29.9985 8.26001C23.466 8.26001 18.1704 13.8913 18.1704 20.8377C18.1704 27.7842 23.4659 33.4154 29.9985 33.4154V8.26001Z" fill="#FFEED9"/>
<path d="M35.1641 27.4696H24.8333V25.0939C24.8333 24.3055 25.5501 23.6663 26.4346 23.6663H33.5629C34.4473 23.6663 35.1643 24.3053 35.1643 25.0939V27.4696H35.1641Z" fill="#56412C"/>
<path d="M29.9987 23.6665H26.4346C25.5503 23.6665 24.8333 24.3056 24.8333 25.094V27.4697H29.9987V23.6665Z" fill="#876746"/>
</svg>
