<svg width="18" height="26" viewBox="0 0 18 26" fill="none" xmlns="http://www.w3.org/2000/svg">
<path fill-rule="evenodd" clip-rule="evenodd" d="M0.25 5.99992C0.25 2.93934 2.37665 0.458252 5 0.458252H13C15.6234 0.458252 17.75 2.93934 17.75 5.99992V22.8755C17.75 24.348 16.7269 25.5416 15.4648 25.5416C15.0137 25.5416 14.5726 25.3858 14.1972 25.0938L9.6934 21.5908C9.2735 21.2642 8.7265 21.2642 8.3066 21.5908L3.80278 25.0938C3.42739 25.3858 2.98634 25.5416 2.53518 25.5416C1.27311 25.5416 0.25 24.348 0.25 22.8755V5.99992ZM5 2.20825C3.20507 2.20825 1.75 3.90583 1.75 5.99992V22.8755C1.75 23.3815 2.10154 23.7916 2.53518 23.7916C2.6902 23.7916 2.84174 23.738 2.97073 23.6377L7.4746 20.1348C8.3983 19.4162 9.6017 19.4162 10.5254 20.1348L15.0293 23.6377C15.1583 23.738 15.3098 23.7916 15.4648 23.7916C15.8985 23.7916 16.25 23.3815 16.25 22.8755V5.99992C16.25 3.90583 14.7949 2.20825 13 2.20825H5Z" fill="white"/>
<path fill-rule="evenodd" clip-rule="evenodd" d="M5.25 7.75C5.25 7.26675 5.58579 6.875 6 6.875H12C12.4142 6.875 12.75 7.26675 12.75 7.75C12.75 8.23324 12.4142 8.625 12 8.625H6C5.58579 8.625 5.25 8.23324 5.25 7.75Z" fill="white"/>
</svg>
