<svg width="37" height="37" viewBox="0 0 37 37" fill="none" xmlns="http://www.w3.org/2000/svg">
<path fill-rule="evenodd" clip-rule="evenodd" d="M28.0037 7.93418L22.3735 13.5643C22.3494 13.5885 22.3241 13.6106 22.2978 13.6309C22.2773 13.6576 22.2548 13.6834 22.2303 13.7079L19.6103 16.3279L20.6999 17.4175L29.0934 9.02398C29.3951 8.72236 29.3951 8.23504 29.0927 7.93349C28.7927 7.63265 28.3044 7.63265 28.0037 7.93418ZM21.7901 18.5076L30.1836 10.1141C31.0875 9.21014 31.0875 7.74571 30.1829 6.84336C29.2818 5.94 27.8153 5.94 26.9128 6.84475L21.2833 12.4742C21.2589 12.4987 21.2364 12.5245 21.2158 12.5512C21.1895 12.5715 21.1643 12.5936 21.1401 12.6178L18.5201 15.2377L18.0285 14.746C18.0209 14.7384 18.0132 14.7311 18.0054 14.7238L10.1385 6.85701C9.23675 5.95295 7.77024 5.95295 6.86777 6.8577C5.96631 7.76151 5.96631 9.22486 6.86847 10.127L15.2496 18.5082L6.88281 26.8751C6.78718 26.9678 6.6554 27.1244 6.52626 27.3342C5.98891 28.2071 5.9867 29.2349 6.87702 30.1239C7.78326 31.0104 8.80092 31.0116 9.67636 30.4998C9.88641 30.3769 10.0441 30.2512 10.1458 30.1521L16.91 23.388C17.211 23.087 17.211 22.5989 16.91 22.2979C16.6089 21.9969 16.1209 21.9969 15.8198 22.2979L9.06269 29.055C9.05129 29.066 8.98862 29.116 8.8982 29.1689C8.56905 29.3613 8.30165 29.361 7.9789 29.0455C7.64312 28.7102 7.64366 28.4599 7.83915 28.1424C7.89388 28.0535 7.94599 27.9915 7.96472 27.9733L18.5201 17.418L19.6098 18.5076L18.1106 20.0068C18.0095 20.1079 17.9424 20.2301 17.9092 20.3592C17.7382 20.6541 17.7789 21.0381 18.0314 21.2906L26.9083 30.1675C27.8122 31.0713 29.2761 31.0713 30.1799 30.1675C31.082 29.263 31.082 27.7996 30.1799 26.8975L21.7901 18.5076ZM20.6999 19.5977L19.6094 20.6883L27.9985 29.0774C28.3002 29.3792 28.788 29.3792 29.089 29.0781C29.3901 28.7763 29.3901 28.2879 29.0897 27.9876L20.6999 19.5977ZM17.4296 16.3283L16.3398 17.4181L7.95863 9.03693C7.65826 8.73662 7.65826 8.24822 7.95932 7.94644C8.25933 7.6456 8.74765 7.6456 9.04766 7.94644L17.4296 16.3283Z" fill="#1E1B0C" fill-opacity="0.8"/>
</svg>
