<svg width="30" height="30" viewBox="0 0 30 30" fill="none" xmlns="http://www.w3.org/2000/svg">
<circle cx="15" cy="15" r="15" fill="#F9F9F8"/>
<g clip-path="url(#clip0_1725_28)">
<path d="M18.3333 5.83325C19.714 5.83325 20.8333 6.95254 20.8333 8.33325C20.8333 8.79349 20.4602 9.16659 19.9999 9.16659C19.5397 9.16659 19.1666 8.79349 19.1666 8.33325C19.1666 7.87302 18.7935 7.49992 18.3333 7.49992H8.33325C7.87302 7.49992 7.49992 7.87302 7.49992 8.33325V21.6666C7.49992 22.1268 7.87302 22.4999 8.33325 22.4999H18.3333C18.7935 22.4999 19.1666 22.1268 19.1666 21.6666V20.8333C19.1666 20.373 19.5397 19.9999 19.9999 19.9999C20.4602 19.9999 20.8333 20.373 20.8333 20.8333V21.6666C20.8333 23.0473 19.714 24.1666 18.3333 24.1666H8.33325C6.95254 24.1666 5.83325 23.0473 5.83325 21.6666V8.33325C5.83325 6.95254 6.95254 5.83325 8.33325 5.83325H18.3333Z" fill="#1E1B0C"/>
<path fill-rule="evenodd" clip-rule="evenodd" d="M22.3325 11.834C22.0827 11.5842 21.6776 11.5842 21.4277 11.834L14.9304 18.3314C14.8076 18.4542 14.7262 18.6123 14.6977 18.7837L14.5606 19.606L15.3829 19.4689C15.5543 19.4404 15.7124 19.359 15.8352 19.2362L22.3325 12.7389C22.5824 12.489 22.5824 12.0839 22.3325 11.834ZM20.2492 10.6555C21.1499 9.7548 22.6104 9.75479 23.5111 10.6555C24.4118 11.5563 24.4118 13.0166 23.5111 13.9174L17.0138 20.4147C16.6453 20.7832 16.1709 21.0272 15.6569 21.1129L14.8346 21.25C13.7066 21.438 12.7286 20.4601 12.9166 19.332L13.0537 18.5097C13.1393 17.9957 13.3834 17.5213 13.7519 17.1528L20.2492 10.6555Z" fill="#1E1B0C"/>
<path d="M9.1665 10.8333C9.1665 10.3731 9.5396 10 9.99984 10H16.6665C17.1268 10 17.4998 10.3731 17.4998 10.8333C17.4998 11.2936 17.1268 11.6667 16.6665 11.6667H9.99984C9.5396 11.6667 9.1665 11.2936 9.1665 10.8333Z" fill="#1E1B0C"/>
<path d="M9.1665 14.1666C9.1665 13.7063 9.5396 13.3333 9.99984 13.3333H13.3332C13.7934 13.3333 14.1665 13.7063 14.1665 14.1666C14.1665 14.6268 13.7934 14.9999 13.3332 14.9999H9.99984C9.5396 14.9999 9.1665 14.6268 9.1665 14.1666Z" fill="#1E1B0C"/>
<path d="M9.1665 17.4998C9.1665 17.0396 9.5396 16.6665 9.99984 16.6665H10.8332C11.2934 16.6665 11.6665 17.0396 11.6665 17.4998C11.6665 17.9601 11.2934 18.3332 10.8332 18.3332H9.99984C9.5396 18.3332 9.1665 17.9601 9.1665 17.4998Z" fill="#1E1B0C"/>
</g>
<defs>
<clipPath id="clip0_1725_28">
<rect width="20" height="20" fill="white" transform="translate(5 5)"/>
</clipPath>
</defs>
</svg>
