<svg width="30" height="30" viewBox="0 0 30 30" fill="none" xmlns="http://www.w3.org/2000/svg">
<circle cx="15" cy="15" r="15" fill="#F9F9F8"/>
<path d="M6.66675 21.6666H8.33341M8.33341 21.6666H17.5001M8.33341 21.6666V16.9734C8.33341 16.5356 8.33341 16.3166 8.38591 16.1124C8.43244 15.9314 8.50902 15.7598 8.61255 15.6043C8.72929 15.4288 8.8927 15.2819 9.21801 14.9897L11.136 13.2666C11.7649 12.7015 12.0797 12.4188 12.4355 12.3115C12.7492 12.217 13.084 12.217 13.3977 12.3115C13.7538 12.4189 14.069 12.7018 14.699 13.2677L16.6157 14.9897C16.9413 15.2823 17.1038 15.4288 17.2207 15.6043C17.3242 15.7598 17.4007 15.9314 17.4472 16.1124C17.4997 16.3166 17.5001 16.5356 17.5001 16.9734V21.6666M17.5001 21.6666H21.6667M21.6667 21.6666H23.3334M21.6667 21.6666V10.9973C21.6667 10.0657 21.6667 9.59925 21.4852 9.24309C21.3255 8.92948 21.0698 8.67469 20.7562 8.51491C20.3997 8.33325 19.9337 8.33325 19.0002 8.33325H13.5002C12.5668 8.33325 12.0998 8.33325 11.7432 8.51491C11.4296 8.67469 11.1749 8.92948 11.0151 9.24309C10.8334 9.5996 10.8334 10.0667 10.8334 11.0001V13.3334" stroke="black" stroke-linecap="round" stroke-linejoin="round"/>
</svg>
