<svg width="26" height="13" viewBox="0 0 26 13" fill="none" xmlns="http://www.w3.org/2000/svg">
<path d="M2.13749 0.709327C1.94712 0.281345 1.43273 0.0830809 0.988555 0.266506C0.544381 0.449932 0.338616 0.945576 0.528981 1.37356L2.13749 0.709327ZM9.54826 8.61555C9.81182 8.22536 9.69711 7.70308 9.29206 7.44914C8.887 7.1952 8.34499 7.3057 8.08143 7.696L9.54826 8.61555ZM6.43315 10.1368C6.16959 10.527 6.2843 11.0493 6.68935 11.3032C7.09441 11.5572 7.63642 11.4467 7.89998 11.0564L6.43315 10.1368ZM25.4709 1.37356C25.6611 0.945576 25.4555 0.449932 25.0112 0.266506C24.5671 0.0830809 24.0527 0.281345 23.8623 0.709327L25.4709 1.37356ZM22.2979 7.96523C22.6396 8.29449 23.1935 8.29449 23.5353 7.96523C23.877 7.63597 23.877 7.10212 23.5353 6.77286L22.2979 7.96523ZM12.1249 11.7208C12.1249 12.1864 12.5167 12.5639 12.9999 12.5639C13.4831 12.5639 13.8749 12.1864 13.8749 11.7208H12.1249ZM18.0999 11.0564C18.3634 11.4467 18.9055 11.5572 19.3104 11.3032C19.7155 11.0493 19.8302 10.527 19.5666 10.1368L18.0999 11.0564ZM5.45195 6.27903C5.79366 5.94977 5.79366 5.41591 5.45195 5.08665C5.11025 4.75739 4.55622 4.75739 4.21452 5.08665L5.45195 6.27903ZM2.46452 6.77286C2.12281 7.10212 2.12281 7.63597 2.46452 7.96523C2.80622 8.29449 3.36025 8.29449 3.70195 7.96523L2.46452 6.77286ZM12.9999 8.0673C9.2387 8.0673 6.53812 6.26261 4.74527 4.40223C3.84909 3.47231 3.19203 2.53974 2.75959 1.83974C2.54387 1.49054 2.38542 1.20143 2.2822 1.00251C2.23062 0.903129 2.19294 0.826451 2.16888 0.776269C2.15687 0.75119 2.14826 0.732754 2.14303 0.721434C2.14042 0.71578 2.13841 0.711362 2.13749 0.709327C2.13746 0.709282 2.13752 0.709417 2.13749 0.709327C2.1376 0.709585 2.13749 0.709327 1.33323 1.04144C0.528981 1.37356 0.528806 1.37318 0.528981 1.37356C0.529051 1.37373 0.529565 1.37486 0.529716 1.3752C0.530008 1.37586 0.53037 1.37666 0.530778 1.37756C0.531583 1.37938 0.532621 1.38167 0.53387 1.38444C0.536378 1.38996 0.539761 1.39737 0.54402 1.4066C0.552536 1.42505 0.564576 1.4508 0.580186 1.48335C0.611383 1.54845 0.656871 1.64083 0.716955 1.75661C0.83704 1.98803 1.01583 2.31368 1.25584 2.7022C1.73486 3.47763 2.46321 4.51233 3.46287 5.54957C5.46168 7.62372 8.59444 9.75351 12.9999 9.75351V8.0673ZM16.8645 7.37124C15.7324 7.80066 14.4486 8.0673 12.9999 8.0673V9.75351C14.6778 9.75351 16.1786 9.44347 17.5055 8.94031L16.8645 7.37124ZM8.08143 7.696L6.43315 10.1368L7.89998 11.0564L9.54826 8.61555L8.08143 7.696ZM24.6666 1.04144C23.8623 0.709327 23.8622 0.709484 23.8623 0.709327C23.8624 0.709147 23.8629 0.708124 23.8629 0.708248C23.8627 0.708473 23.8624 0.709282 23.8617 0.710676C23.8604 0.713453 23.8581 0.718534 23.8547 0.72583C23.8479 0.740432 23.837 0.763881 23.8217 0.795537C23.791 0.858849 23.7433 0.954827 23.6779 1.07817C23.5473 1.32503 23.3471 1.6803 23.0745 2.10173C22.528 2.94704 21.6989 4.0451 20.5677 5.0681L21.7654 6.29757C23.0359 5.14848 23.9569 3.92583 24.5598 2.99346C24.8621 2.52607 25.0866 2.12826 25.2369 1.84425C25.3121 1.70215 25.3689 1.58826 25.4078 1.50804C25.4271 1.46793 25.4421 1.43622 25.4526 1.41358C25.4578 1.40226 25.462 1.39321 25.465 1.38651C25.4666 1.38316 25.4677 1.3804 25.4688 1.37823C25.4692 1.37716 25.4696 1.37622 25.4699 1.37545C25.4702 1.37505 25.4708 1.37387 25.4709 1.37356C25.4709 1.37364 25.471 1.3734 25.4709 1.37356C25.471 1.37337 25.4709 1.37356 24.6666 1.04144ZM20.5677 5.0681C19.5656 5.97438 18.3361 6.8131 16.8645 7.37124L17.5055 8.94031C19.2247 8.28831 20.6376 7.3175 21.7654 6.29757L20.5677 5.0681ZM20.5479 6.27903L22.2979 7.96523L23.5353 6.77286L21.7853 5.08665L20.5479 6.27903ZM12.1249 8.91041V11.7208H13.8749V8.91041H12.1249ZM16.4516 8.61555L18.0999 11.0564L19.5666 10.1368L17.9183 7.696L16.4516 8.61555ZM4.21452 5.08665L2.46452 6.77286L3.70195 7.96523L5.45195 6.27903L4.21452 5.08665Z" fill="#1E1B0C"/>
</svg>
