<svg width="23" height="23" viewBox="0 0 23 23" fill="none" xmlns="http://www.w3.org/2000/svg">
<path d="M11.2307 14.6035V16.8518M5.07683 9.57724C5.65704 9.54487 6.37232 9.54487 7.29221 9.54487H15.1691C16.089 9.54487 16.8043 9.54487 17.3845 9.57724M5.07683 9.57724C4.35274 9.6176 3.83903 9.70843 3.40056 9.91246C2.7058 10.2358 2.14095 10.7516 1.78696 11.3862C1.38452 12.1077 1.38452 13.052 1.38452 14.9407V16.5145C1.38452 18.4033 1.38452 19.3476 1.78696 20.069C2.14095 20.7036 2.7058 21.2195 3.40056 21.5428C4.19038 21.9104 5.22432 21.9104 7.29221 21.9104H15.1691C17.2371 21.9104 18.2709 21.9104 19.0608 21.5428C19.7556 21.2195 20.3204 20.7036 20.6744 20.069C21.0768 19.3476 21.0768 18.4033 21.0768 16.5145V14.9407C21.0768 13.052 21.0768 12.1077 20.6744 11.3862C20.3204 10.7516 19.7556 10.2358 19.0608 9.91246C18.6223 9.70843 18.1086 9.6176 17.3845 9.57724M5.07683 9.57724V7.29659C5.07683 4.19238 7.832 1.6759 11.2307 1.6759C14.6293 1.6759 17.3845 4.19238 17.3845 7.29659V9.57724" stroke="#1E1B0C" stroke-width="2" stroke-linecap="round" stroke-linejoin="round"/>
</svg>
