<svg width="25" height="24" viewBox="0 0 25 24" fill="none" xmlns="http://www.w3.org/2000/svg">
<path d="M12.1309 10C14.3527 10 16.1537 8.20914 16.1537 6C16.1537 3.79086 14.3527 2 12.1309 2C9.90922 2 8.10815 3.79086 8.10815 6C8.10815 8.20914 9.90922 10 12.1309 10Z" stroke="#1E1B0C" stroke-width="1.5"/>
<path d="M20.1741 18C20.1766 17.8358 20.1766 17.669 20.1766 17.5C20.1766 15.0147 16.5745 13 12.131 13C7.68758 13 4.08545 15.0147 4.08545 17.5C4.08545 19.9853 4.08545 22 12.131 22C14.3747 22 15.9927 21.8433 17.1595 21.5634" stroke="#1E1B0C" stroke-width="1.5" stroke-linecap="round"/>
</svg>
